<svg width="50" height="50" viewBox="0 0 50 50" fill="none" xmlns="http://www.w3.org/2000/svg">
<path d="M18.75 25L22.9167 29.1667L31.25 20.8334M10.4167 15C10.4167 13.7844 10.8995 12.6186 11.7591 11.7591C12.6186 10.8995 13.7844 10.4167 15 10.4167H17.0833C18.2935 10.416 19.4543 9.93665 20.3125 9.08332L21.7708 7.62498C22.1967 7.19665 22.7032 6.85674 23.2609 6.62479C23.8187 6.39284 24.4168 6.27344 25.0208 6.27344C25.6249 6.27344 26.223 6.39284 26.7807 6.62479C27.3385 6.85674 27.8449 7.19665 28.2708 7.62498L29.7292 9.08332C30.5875 9.93748 31.75 10.4167 32.9583 10.4167H35.0416C36.2572 10.4167 37.423 10.8995 38.2826 11.7591C39.1421 12.6186 39.625 13.7844 39.625 15V17.0833C39.625 18.2916 40.1042 19.4542 40.9583 20.3125L42.4167 21.7708C42.845 22.1967 43.1849 22.7032 43.4168 23.2609C43.6488 23.8187 43.7682 24.4168 43.7682 25.0208C43.7682 25.6249 43.6488 26.223 43.4168 26.7807C43.1849 27.3385 42.845 27.8449 42.4167 28.2708L40.9583 29.7292C40.105 30.5873 39.6257 31.7481 39.625 32.9583V35.0416C39.625 36.2572 39.1421 37.423 38.2826 38.2826C37.423 39.1421 36.2572 39.625 35.0416 39.625H32.9583C31.7481 39.6257 30.5873 40.105 29.7292 40.9583L28.2708 42.4167C27.8449 42.845 27.3385 43.1849 26.7807 43.4168C26.223 43.6488 25.6249 43.7682 25.0208 43.7682C24.4168 43.7682 23.8187 43.6488 23.2609 43.4168C22.7032 43.1849 22.1967 42.845 21.7708 42.4167L20.3125 40.9583C19.4543 40.105 18.2935 39.6257 17.0833 39.625H15C13.7844 39.625 12.6186 39.1421 11.7591 38.2826C10.8995 37.423 10.4167 36.2572 10.4167 35.0416V32.9583C10.416 31.7481 9.93665 30.5873 9.08332 29.7292L7.62498 28.2708C7.19665 27.8449 6.85674 27.3385 6.62479 26.7807C6.39284 26.223 6.27344 25.6249 6.27344 25.0208C6.27344 24.4168 6.39284 23.8187 6.62479 23.2609C6.85674 22.7032 7.19665 22.1967 7.62498 21.7708L9.08332 20.3125C9.93665 19.4543 10.416 18.2935 10.4167 17.0833V15Z" stroke="black" stroke-width="2" stroke-linecap="round" stroke-linejoin="round"/>
</svg>
