<svg width="36" height="36" viewBox="0 0 36 36" fill="none" xmlns="http://www.w3.org/2000/svg">
<path d="M32.25 26V32.25C32.25 32.8025 32.0305 33.3324 31.6398 33.7231C31.2491 34.1138 30.7192 34.3333 30.1667 34.3333H5.16667C4.0616 34.3333 3.00179 33.8943 2.22039 33.1129C1.43899 32.3315 1 31.2717 1 30.1667V5.16667C1 4.0616 1.43899 3.00179 2.22039 2.22039C3.00179 1.43899 4.0616 1 5.16667 1H26C26.5525 1 27.0824 1.21949 27.4731 1.61019C27.8638 2.0009 28.0833 2.5308 28.0833 3.08333V9.33333M1 5.16667C1 6.27174 1.43899 7.33154 2.22039 8.11295C3.00179 8.89435 4.0616 9.33333 5.16667 9.33333H30.1667C30.7192 9.33333 31.2491 9.55283 31.6398 9.94353C32.0305 10.3342 32.25 10.8641 32.25 11.4167V17.6667M34.3333 17.6667V26H26C24.8949 26 23.8351 25.561 23.0537 24.7796C22.2723 23.9982 21.8333 22.9384 21.8333 21.8333C21.8333 20.7283 22.2723 19.6685 23.0537 18.8871C23.8351 18.1057 24.8949 17.6667 26 17.6667H34.3333Z" stroke="black" stroke-width="2" stroke-linecap="round" stroke-linejoin="round"/>
</svg>
