<svg width="36" height="36" viewBox="0 0 36 36" fill="none" xmlns="http://www.w3.org/2000/svg">
<path d="M13.5 16.5V9C13.5 7.80653 13.9741 6.66193 14.818 5.81802C15.6619 4.97411 16.8065 4.5 18 4.5C19.1934 4.5 20.338 4.97411 21.182 5.81802C22.0259 6.66193 22.5 7.80653 22.5 9V16.5M9.49645 12H26.505C26.9375 11.9999 27.365 12.0934 27.758 12.2741C28.151 12.4547 28.5004 12.7181 28.782 13.0464C29.0637 13.3747 29.2711 13.76 29.3899 14.1759C29.5087 14.5918 29.5362 15.0285 29.4705 15.456L27.588 27.684C27.4245 28.7467 26.886 29.7157 26.0699 30.4157C25.2539 31.1157 24.2141 31.5003 23.139 31.5H12.861C11.7861 31.4999 10.7467 31.1151 9.9309 30.4152C9.11512 29.7152 8.57684 28.7464 8.41345 27.684L6.53095 15.456C6.4652 15.0285 6.49269 14.5918 6.61151 14.1759C6.73034 13.76 6.93769 13.3747 7.21937 13.0464C7.50105 12.7181 7.85038 12.4547 8.24342 12.2741C8.63645 12.0934 9.0639 11.9999 9.49645 12Z" stroke="black" stroke-width="2" stroke-linecap="round" stroke-linejoin="round"/>
</svg>
