<svg width="170" height="27" viewBox="0 0 170 27" fill="none" xmlns="http://www.w3.org/2000/svg">
<path d="M22.4869 17.4155C22.7284 17.4155 22.9142 17.527 23.0442 17.7499C23.1929 17.9728 23.2672 18.2793 23.2672 18.6695C23.2672 19.3939 23.0907 19.9698 22.7377 20.3971C21.6974 21.6417 20.685 22.5148 19.7005 23.0164C18.7345 23.5179 17.5641 23.7687 16.1895 23.7687C15.2235 23.7687 14.3318 23.648 13.5145 23.4065C12.6971 23.165 11.7032 22.8027 10.5329 22.3198C9.52978 21.8925 8.63811 21.5488 7.85789 21.2888C7.00337 22.2176 6.23244 22.8678 5.54511 23.2393C4.85777 23.5922 4.13329 23.7687 3.37165 23.7687C2.34994 23.7687 1.53257 23.5365 0.91954 23.0721C0.306513 22.5891 0 21.9668 0 21.2052C0 20.6293 0.185766 20.0999 0.557297 19.6169C0.947405 19.1339 1.48613 18.753 2.17346 18.4744C2.86079 18.1958 3.65958 18.0564 4.56984 18.0564C5.08998 18.0564 5.48009 18.0657 5.74016 18.0843C9.38117 13.5516 12.6692 8.76814 15.6043 3.73389C14.0067 3.45524 12.3813 3.31592 10.728 3.31592C8.59167 3.31592 7.02194 3.5667 6.01881 4.06827C5.03425 4.55126 4.54197 5.32219 4.54197 6.38105C4.54197 6.69685 4.57912 6.96621 4.65343 7.18913C4.72774 7.41205 4.8392 7.67212 4.98781 7.96935C5.155 8.30373 5.23859 8.54522 5.23859 8.69384C5.23859 9.06537 5.06212 9.38117 4.70916 9.64124C4.37478 9.88274 3.98467 10.0035 3.53884 10.0035C3.07442 10.0035 2.6936 9.86416 2.39638 9.58551C2.04342 9.26971 1.75549 8.84245 1.53257 8.30373C1.32822 7.74643 1.22605 7.12411 1.22605 6.43678C1.22605 4.26332 2.12702 2.65645 3.92894 1.61616C5.73087 0.575875 8.10867 0.0557307 11.0623 0.0557307C12.5299 0.0557307 14.0253 0.139325 15.5486 0.306514C17.0904 0.473703 18.5301 0.743063 19.8676 1.11459C20.4249 1.26321 20.7965 1.47684 20.9822 1.75549C21.168 2.01556 21.2609 2.35923 21.2609 2.78649C21.2609 3.28805 21.1309 3.67816 20.8708 3.95681C20.6107 4.23546 20.2485 4.37478 19.784 4.37478H19.589C17.5827 7.64426 15.5486 10.7837 13.4866 13.7931C11.8333 16.1895 10.6722 17.8149 10.0035 18.6695C11.0809 18.911 12.019 19.1339 12.8178 19.3382C13.8024 19.5983 14.5919 19.7933 15.1863 19.9234C15.7994 20.0348 16.3288 20.0906 16.7746 20.0906C17.8521 20.0906 18.7716 19.9141 19.5333 19.5611C20.3135 19.1896 21.0473 18.6044 21.7346 17.8056C21.9575 17.5456 22.2083 17.4155 22.4869 17.4155Z" fill="white"/>
<path d="M30.253 23.7687C28.5996 23.7687 27.1042 23.3972 25.7667 22.6541C24.4478 21.9111 23.3982 20.8243 22.618 19.3939C21.8378 17.945 21.4477 16.2173 21.4477 14.2111C21.4477 11.3874 21.9585 8.89818 22.9802 6.7433C24.0205 4.58841 25.4231 2.92581 27.1878 1.75549C28.9712 0.585162 30.9403 0 33.0952 0C34.7485 0 36.2346 0.371532 37.5536 1.11459C38.8911 1.85766 39.9499 2.95368 40.7301 4.40265C41.5104 5.83304 41.9005 7.55138 41.9005 9.55765C41.9005 12.3813 41.3803 14.8705 40.34 17.0254C39.3183 19.1803 37.9158 20.8429 36.1324 22.0132C34.3677 23.1836 32.4078 23.7687 30.253 23.7687ZM30.5316 20.4807C31.9806 20.4807 33.2531 20.0348 34.3491 19.1432C35.4637 18.2515 36.3182 17.0161 36.9127 15.4371C37.5071 13.8395 37.8043 12.0376 37.8043 10.0313C37.8043 7.82074 37.3399 6.14885 36.4111 5.01567C35.4823 3.86393 34.2841 3.28805 32.8165 3.28805C31.3861 3.28805 30.1229 3.73389 29.0269 4.62557C27.9309 5.49866 27.0764 6.73401 26.4633 8.33159C25.8503 9.9106 25.5438 11.7125 25.5438 13.7374C25.5438 15.948 26.0082 17.6292 26.937 18.7809C27.8659 19.9141 29.0641 20.4807 30.5316 20.4807Z" fill="white"/>
<path d="M53.002 23.7687C51.3487 23.7687 49.8533 23.3972 48.5158 22.6541C47.1968 21.9111 46.1473 20.8243 45.367 19.3939C44.5868 17.945 44.1967 16.2173 44.1967 14.2111C44.1967 11.3874 44.7076 8.89818 45.7293 6.7433C46.7696 4.58841 48.1721 2.92581 49.9369 1.75549C51.7202 0.585162 53.6893 0 55.8442 0C57.4975 0 58.9837 0.371532 60.3026 1.11459C61.6401 1.85766 62.699 2.95368 63.4792 4.40265C64.2594 5.83304 64.6495 7.55138 64.6495 9.55765C64.6495 12.3813 64.1294 14.8705 63.0891 17.0254C62.0674 19.1803 60.6648 20.8429 58.8815 22.0132C57.1167 23.1836 55.1569 23.7687 53.002 23.7687ZM53.2807 20.4807C54.7296 20.4807 56.0021 20.0348 57.0981 19.1432C58.2127 18.2515 59.0673 17.0161 59.6617 15.4371C60.2562 13.8395 60.5534 12.0376 60.5534 10.0313C60.5534 7.82074 60.089 6.14885 59.1601 5.01567C58.2313 3.86393 57.0331 3.28805 55.5656 3.28805C54.1352 3.28805 52.872 3.73389 51.776 4.62557C50.6799 5.49866 49.8254 6.73401 49.2124 8.33159C48.5994 9.9106 48.2928 11.7125 48.2928 13.7374C48.2928 15.948 48.7573 17.6292 49.6861 18.7809C50.6149 19.9141 51.8131 20.4807 53.2807 20.4807Z" fill="white"/>
<path d="M88.5967 0.501568C89.1726 0.613027 89.5999 0.808081 89.8785 1.08673C90.1758 1.36538 90.3244 1.69047 90.3244 2.062C90.3244 2.67503 90.1479 3.12086 89.7949 3.39951C89.4606 3.67816 88.9218 3.78962 88.1788 3.73389C86.5069 3.60386 85.1972 3.52026 84.2498 3.48311C83.321 3.42738 82.0949 3.39023 80.5717 3.37165C79.8843 6.78974 79.2527 10.2264 78.6769 13.6816C78.4725 14.9449 78.2589 16.4124 78.036 18.0843C77.813 19.7376 77.6644 21.0751 77.5901 22.0968C77.553 22.6356 77.3301 23.0535 76.9214 23.3507C76.5127 23.6294 76.0204 23.7687 75.4445 23.7687C74.8315 23.7687 74.3578 23.6201 74.0234 23.3229C73.689 23.0257 73.5219 22.6356 73.5219 22.1526C73.5219 21.7067 73.5869 20.9729 73.7169 19.9512C73.8655 18.911 74.0327 17.8242 74.2185 16.691C74.4228 15.5579 74.5807 14.5733 74.6922 13.7374C74.8965 12.3256 75.1287 10.923 75.3888 9.52978C75.6489 8.13654 75.909 6.8176 76.169 5.57297C76.2248 5.29432 76.2898 4.97852 76.3641 4.62557C76.4384 4.25404 76.522 3.84535 76.6149 3.39951C74.7944 3.45524 73.364 3.60385 72.3237 3.84535C71.2834 4.08685 70.5403 4.43051 70.0945 4.87635C69.6672 5.30361 69.4536 5.86091 69.4536 6.54824C69.4536 7.17985 69.6394 7.78358 70.0109 8.35946C70.0852 8.48949 70.1223 8.62882 70.1223 8.77743C70.1223 9.13039 69.9087 9.46476 69.4815 9.78057C69.0728 10.0778 68.6455 10.2264 68.1997 10.2264C67.8839 10.2264 67.6238 10.1335 67.4195 9.94775C67.0479 9.63195 66.7414 9.18612 66.4999 8.61024C66.2584 8.01579 66.1377 7.34703 66.1377 6.60397C66.1377 5.02496 66.6485 3.76176 67.6702 2.81435C68.7105 1.84837 70.2803 1.14246 72.3794 0.696622C74.4971 0.250783 77.2093 0.0278642 80.5159 0.0278642C82.5594 0.0278642 84.1848 0.0650174 85.3923 0.139324C86.6183 0.21363 87.6865 0.334378 88.5967 0.501568Z" fill="white"/>
<path fill-rule="evenodd" clip-rule="evenodd" d="M95.1803 23.7687C93.5269 23.7687 92.0315 23.3972 90.694 22.6541C89.3751 21.9111 88.3255 20.8243 87.5453 19.3939C86.7651 17.945 86.375 16.2174 86.375 14.2111C86.375 11.3874 86.8858 8.89818 87.9075 6.7433C88.9478 4.58841 90.3503 2.92581 92.1151 1.75549C93.8985 0.585162 95.8676 0 98.0225 0C99.6758 0 101.162 0.371532 102.481 1.11459C103.818 1.85766 104.877 2.95368 105.657 4.40265C106.438 5.83304 106.828 7.55138 106.828 9.55765C106.828 12.3813 106.308 14.8705 105.267 17.0254C104.246 19.1803 102.843 20.8429 101.06 22.0132C99.295 23.1836 97.3351 23.7687 95.1803 23.7687ZM96.8356 5.32626C96.5903 4.65279 96.1498 4.2158 95.6269 4.12727C95.104 4.03873 94.5441 4.30638 94.0908 4.86152C93.6744 5.37153 93.3722 6.0827 93.2399 6.86407C93.1076 7.64544 93.1588 8.41646 93.3842 9.03513C93.6295 9.7086 94.07 10.1456 94.5929 10.2342C95.1158 10.3227 95.6756 10.055 96.129 9.49987C96.5454 8.98986 96.8476 8.27872 96.9799 7.49732C97.1122 6.71595 97.061 5.9449 96.8356 5.32626ZM91.8401 8.28049C92.2693 8.62535 92.5643 9.23732 92.6493 9.95948C92.7188 10.5496 92.6387 11.1474 92.4238 11.6428C92.1862 12.1903 91.8141 12.5544 91.3759 12.6679C91.2243 12.7071 91.0703 12.7133 90.9192 12.6878C90.7189 12.6538 90.5237 12.564 90.3461 12.4214C89.9169 12.0765 89.6219 11.4645 89.5369 10.7424C89.4674 10.1523 89.5475 9.55447 89.7624 9.0591C90 8.5116 90.3721 8.14753 90.8103 8.03401C91.1628 7.94271 91.5285 8.03021 91.8401 8.28049ZM101.082 6.04535C100.837 5.37188 100.397 4.93492 99.8736 4.84639C99.3508 4.75786 98.7909 5.0255 98.3376 5.58061C97.9212 6.09062 97.6189 6.80179 97.4866 7.58316C97.3543 8.36452 97.4056 9.13554 97.6309 9.75422C97.8763 10.4277 98.3168 10.8647 98.8397 10.9532C99.3626 11.0417 99.9224 10.7741 100.376 10.219C100.792 9.70895 101.094 8.99778 101.227 8.21641C101.359 7.43505 101.308 6.66399 101.082 6.04535ZM103.136 10.1209C103.512 10.3723 103.744 10.8386 103.788 11.4338C103.828 11.9723 103.706 12.5632 103.447 13.0975C103.129 13.7514 102.649 14.2322 102.13 14.4165C101.915 14.4928 101.701 14.5133 101.501 14.4794C101.35 14.4538 101.206 14.3973 101.076 14.3103C100.7 14.0589 100.468 13.5926 100.424 12.9974C100.384 12.4589 100.506 11.8681 100.765 11.3337C101.083 10.6798 101.563 10.199 102.082 10.0147C102.459 9.88087 102.833 9.91861 103.136 10.1209ZM99.7206 13.495C98.9987 11.9584 97.9201 10.9968 96.6835 10.7875C95.4468 10.5781 94.1118 11.131 92.9243 12.3443C91.8569 13.4349 91.0808 14.9057 90.8484 16.2788C90.7354 16.9457 90.8204 17.4827 91.1008 17.8749C91.3775 18.2619 91.7979 18.4482 92.2881 18.5311C92.8096 18.6194 93.4101 18.5908 94.0002 18.5626C94.5158 18.538 95.0028 18.5148 95.3648 18.5761C95.6772 18.629 96.1012 18.8011 96.55 18.9833C97.5988 19.4091 98.7876 19.8917 99.6209 19.3049C100.017 19.026 100.274 18.5511 100.386 17.8936C100.618 16.5205 100.37 14.8762 99.7206 13.495Z" fill="white"/>
<path d="M130.273 7.02194C130.273 8.60095 129.865 10.0499 129.047 11.3689C128.23 12.6878 127.041 13.7652 125.481 14.6012C123.92 15.4371 122.063 15.9294 119.908 16.078L118.71 22.7935C118.245 25.3756 116.982 26.6667 114.92 26.6667C113.787 26.6667 112.737 26.3323 111.771 25.6635C110.824 24.9948 110.062 23.9731 109.486 22.5984C108.91 21.2237 108.622 19.5333 108.622 17.527C108.622 13.756 109.226 10.5608 110.434 7.94148C111.66 5.30361 113.294 3.33449 115.338 2.03413C117.4 0.715199 119.666 0.0557307 122.137 0.0557307C123.883 0.0557307 125.36 0.362244 126.567 0.975271C127.793 1.5883 128.713 2.42424 129.326 3.48311C129.958 4.5234 130.273 5.70301 130.273 7.02194ZM120.409 13.2079C124.217 12.725 126.122 10.7465 126.122 7.27273C126.122 6.04667 125.713 5.05283 124.896 4.29119C124.097 3.51097 122.852 3.12086 121.162 3.12086C119.248 3.12086 117.576 3.7246 116.146 4.93208C114.734 6.13956 113.638 7.82074 112.858 9.97562C112.096 12.1119 111.715 14.5547 111.715 17.3041C111.715 18.4558 111.827 19.4775 112.05 20.3692C112.291 21.2609 112.589 21.9575 112.941 22.4591C113.313 22.9421 113.666 23.1836 114 23.1836C114.465 23.1836 114.818 22.5427 115.059 21.2609L115.979 15.9944C115.254 15.883 114.938 15.8365 115.031 15.8551C114.474 15.7622 114.112 15.595 113.945 15.3535C113.777 15.0935 113.694 14.7684 113.694 14.3783C113.694 13.9696 113.805 13.6445 114.028 13.403C114.27 13.1615 114.595 13.0408 115.003 13.0408C115.189 13.0408 115.329 13.05 115.421 13.0686C115.867 13.1429 116.211 13.1894 116.452 13.2079C116.694 11.759 117.038 9.81772 117.483 7.38419C117.595 6.75258 117.846 6.30675 118.236 6.04667C118.645 5.76803 119.118 5.6287 119.657 5.6287C120.27 5.6287 120.707 5.74945 120.967 5.99094C121.245 6.21386 121.385 6.57611 121.385 7.07767C121.385 7.3749 121.366 7.6164 121.329 7.80216L120.409 13.2079Z" fill="white"/>
<path d="M143.528 0.167188C144.011 0.167188 144.42 0.287936 144.754 0.529432C145.089 0.752351 145.256 1.031 145.256 1.36538C145.256 1.95983 145.07 2.44282 144.699 2.81435C144.327 3.16731 143.798 3.34378 143.11 3.34378C142.033 3.34378 141.216 3.35307 140.658 3.37165C140.621 3.59457 140.454 4.5977 140.157 6.38105C139.822 8.36875 139.618 9.58551 139.544 10.0313L138.959 13.6816C138.55 16.4124 138.225 18.6973 137.983 20.5364C138.373 20.5178 138.903 20.5085 139.572 20.5085C140.556 20.5085 141.225 20.6386 141.578 20.8986C141.931 21.1587 142.107 21.5488 142.107 22.069C142.107 22.552 141.912 22.9606 141.522 23.295C141.151 23.6294 140.621 23.7966 139.934 23.7966C139.469 23.7966 138.736 23.778 137.732 23.7409C136.804 23.7037 136.191 23.6851 135.893 23.6851C134.723 23.6851 133.441 23.7873 132.048 23.9916C131.435 24.0845 130.998 24.131 130.738 24.131C130.33 24.131 129.986 24.0195 129.707 23.7966C129.429 23.5737 129.289 23.2486 129.289 22.8213C129.289 22.1526 129.587 21.6324 130.181 21.2609C130.776 20.8894 131.612 20.6943 132.689 20.6757L133.999 20.6479L134.082 20.0348C134.528 17.0626 134.853 14.9634 135.057 13.7374L135.671 10.0871C136.042 7.9322 136.376 5.7123 136.674 3.42738L134.333 3.45524C133.664 3.45524 133.2 3.35307 132.94 3.14873C132.698 2.92581 132.577 2.6193 132.577 2.22919C132.577 0.965982 133.488 0.287937 135.308 0.195054C136.163 0.157901 137.203 0.139324 138.429 0.139324L143.528 0.167188Z" fill="white"/>
<path d="M151.919 23.7687C150.637 23.7687 149.476 23.4529 148.436 22.8213C147.414 22.1897 146.606 21.2795 146.012 20.0906C145.417 18.8831 145.12 17.462 145.12 15.8272C145.12 13.0036 145.724 10.3936 146.931 7.99721C148.139 5.58226 149.922 3.6503 152.281 2.20132C154.64 0.733775 157.473 0 160.78 0C161.635 0 162.545 0.0650179 163.511 0.195054C164.495 0.32509 165.387 0.520144 166.186 0.780216C166.706 0.928829 166.966 1.30036 166.966 1.89481C166.966 2.3778 166.78 2.83293 166.409 3.26019C166.056 3.68745 165.638 3.90108 165.155 3.90108C165.006 3.90108 164.895 3.89179 164.82 3.87321C163.854 3.6503 163.028 3.4924 162.34 3.39951C161.653 3.28805 160.929 3.23232 160.167 3.23232C157.808 3.23232 155.801 3.8082 154.148 4.95995C152.495 6.09312 151.26 7.59782 150.442 9.47405C149.625 11.3503 149.216 13.3751 149.216 15.5486C149.216 17.1276 149.523 18.3537 150.136 19.2268C150.767 20.0813 151.585 20.5085 152.588 20.5085C153.721 20.5085 154.715 20.0441 155.569 19.1153C156.424 18.1865 157.204 16.6818 157.91 14.6012C158.616 12.5206 159.312 9.69697 160 6.13027C160.111 5.61013 160.334 5.25717 160.669 5.0714C161.003 4.88564 161.449 4.79276 162.006 4.79276C163.325 4.79276 163.984 5.22002 163.984 6.07454C163.984 6.22315 163.957 6.40892 163.901 6.63184C163.418 8.43376 162.972 10.4307 162.563 12.6228C162.173 14.7962 161.978 16.4496 161.978 17.5827C161.978 18.5859 162.127 19.3196 162.424 19.784C162.721 20.2299 163.176 20.4528 163.789 20.4528C164.384 20.4528 164.95 20.2578 165.489 19.8676C166.028 19.459 166.706 18.7716 167.523 17.8056C167.746 17.5456 167.997 17.4155 168.276 17.4155C168.517 17.4155 168.703 17.527 168.833 17.7499C168.982 17.9728 169.056 18.2793 169.056 18.6695C169.056 19.3939 168.879 19.9698 168.526 20.3971C167.616 21.4931 166.725 22.329 165.851 22.9049C164.978 23.4808 163.91 23.7687 162.647 23.7687C161.347 23.7687 160.297 23.3972 159.498 22.6541C158.699 21.8925 158.198 20.8243 157.994 19.4497C156.619 22.329 154.594 23.7687 151.919 23.7687Z" fill="white"/>
</svg>
