<svg width="254" height="40" viewBox="0 0 254 40" fill="none" xmlns="http://www.w3.org/2000/svg">
<path d="M33.7304 26.1233C34.0927 26.1233 34.3713 26.2905 34.5664 26.6249C34.7893 26.9593 34.9007 27.419 34.9007 28.0042C34.9007 29.0909 34.636 29.9547 34.1066 30.5956C32.5462 32.4626 31.0275 33.7722 29.5507 34.5246C28.1017 35.2769 26.3462 35.6531 24.2842 35.6531C22.8352 35.6531 21.4977 35.472 20.2717 35.1097C19.0456 34.7475 17.5549 34.2041 15.7994 33.4796C14.2947 32.8387 12.9572 32.3232 11.7868 31.9331C10.5051 33.3264 9.34866 34.3016 8.31766 34.8589C7.28666 35.3884 6.19993 35.6531 5.05747 35.6531C3.5249 35.6531 2.29885 35.3048 1.37931 34.6082C0.45977 33.8837 0 32.9502 0 31.8077C0 30.9439 0.278649 30.1498 0.835946 29.4253C1.42111 28.7008 2.22919 28.1296 3.26019 27.7116C4.29119 27.2936 5.48938 27.0846 6.85475 27.0846C7.63497 27.0846 8.22013 27.0986 8.61024 27.1264C14.0718 20.3274 19.0038 13.1522 23.4065 5.60084C21.0101 5.18286 18.5719 4.97388 16.092 4.97388C12.8875 4.97388 10.5329 5.35005 9.02821 6.1024C7.55138 6.82689 6.81296 7.98328 6.81296 9.57158C6.81296 10.0453 6.86869 10.4493 6.98015 10.7837C7.09161 11.1181 7.2588 11.5082 7.48171 11.954C7.7325 12.4556 7.85789 12.8178 7.85789 13.0408C7.85789 13.5981 7.59317 14.0718 7.06374 14.4619C6.56217 14.8241 5.97701 15.0052 5.30826 15.0052C4.61163 15.0052 4.0404 14.7962 3.59457 14.3783C3.06513 13.9046 2.63323 13.2637 2.29885 12.4556C1.99234 11.6196 1.83908 10.6862 1.83908 9.65517C1.83908 6.39499 3.19053 3.98468 5.89342 2.42424C8.59631 0.863812 12.163 0.083596 16.5935 0.083596C18.7948 0.083596 21.038 0.208988 23.3229 0.459772C25.6357 0.710554 27.7952 1.11459 29.8015 1.67189C30.6374 1.89481 31.1947 2.21526 31.4734 2.63323C31.752 3.02334 31.8913 3.53884 31.8913 4.17973C31.8913 4.93208 31.6963 5.51724 31.3062 5.93521C30.9161 6.35319 30.3727 6.56217 29.6761 6.56217H29.3835C26.3741 11.4664 23.3229 16.1755 20.2299 20.6897C17.7499 24.2842 16.0084 26.7224 15.0052 28.0042C16.6214 28.3664 18.0286 28.7008 19.2268 29.0073C20.7036 29.3974 21.8878 29.69 22.7795 29.8851C23.6991 30.0523 24.4932 30.1358 25.162 30.1358C26.7781 30.1358 28.1574 29.8711 29.2999 29.3417C30.4702 28.7844 31.5709 27.9067 32.6019 26.7085C32.9363 26.3184 33.3124 26.1233 33.7304 26.1233Z" fill="#366F15"/>
<path d="M45.3794 35.6531C42.8995 35.6531 40.6563 35.0958 38.6501 33.9812C36.6717 32.8666 35.0973 31.2365 33.927 29.0909C32.7567 26.9175 32.1715 24.326 32.1715 21.3166C32.1715 17.0812 32.9378 13.3473 34.4704 10.1149C36.0308 6.88262 38.1346 4.38871 40.7817 2.63323C43.4568 0.877743 46.4104 0 49.6428 0C52.1227 0 54.3519 0.557297 56.3303 1.67189C58.3366 2.78649 59.9249 4.43051 61.0952 6.60397C62.2655 8.74957 62.8507 11.3271 62.8507 14.3365C62.8507 18.5719 62.0705 22.3058 60.5101 25.5381C58.9775 28.7705 56.8737 31.2644 54.1987 33.0199C51.5515 34.7753 48.6118 35.6531 45.3794 35.6531ZM45.7974 30.721C47.9709 30.721 49.8796 30.0522 51.5236 28.7147C53.1955 27.3772 54.4773 25.5242 55.369 23.1557C56.2607 20.7593 56.7065 18.0564 56.7065 15.047C56.7065 11.7311 56.0099 9.22327 54.6166 7.52351C53.2234 5.79589 51.4261 4.93208 49.2248 4.93208C47.0792 4.93208 45.1844 5.60084 43.5404 6.93835C41.8963 8.248 40.6146 10.101 39.695 12.4974C38.7755 14.8659 38.3157 17.5688 38.3157 20.6061C38.3157 23.922 39.0123 26.4438 40.4056 28.1714C41.7988 29.8711 43.5961 30.721 45.7974 30.721Z" fill="#366F15"/>
<path d="M79.503 35.6531C77.023 35.6531 74.7799 35.0958 72.7736 33.9812C70.7952 32.8666 69.2209 31.2365 68.0506 29.0909C66.8802 26.9175 66.2951 24.326 66.2951 21.3166C66.2951 17.0812 67.0613 13.3473 68.5939 10.1149C70.1544 6.88262 72.2581 4.38871 74.9053 2.63323C77.5803 0.877743 80.534 0 83.7663 0C86.2463 0 88.4755 0.557297 90.4539 1.67189C92.4602 2.78649 94.0485 4.43051 95.2188 6.60397C96.3891 8.74957 96.9743 11.3271 96.9743 14.3365C96.9743 18.5719 96.1941 22.3058 94.6336 25.5381C93.1011 28.7705 90.9973 31.2644 88.3222 33.0199C85.6751 34.7753 82.7353 35.6531 79.503 35.6531ZM79.921 30.721C82.0944 30.721 84.0032 30.0522 85.6472 28.7147C87.3191 27.3772 88.6009 25.5242 89.4926 23.1557C90.3842 20.7593 90.8301 18.0564 90.8301 15.047C90.8301 11.7311 90.1335 9.22327 88.7402 7.52351C87.347 5.79589 85.5497 4.93208 83.3484 4.93208C81.2028 4.93208 79.308 5.60084 77.6639 6.93835C76.0199 8.248 74.7381 10.101 73.8186 12.4974C72.899 14.8659 72.4393 17.5688 72.4393 20.6061C72.4393 23.922 73.1359 26.4438 74.5291 28.1714C75.9224 29.8711 77.7197 30.721 79.921 30.721Z" fill="#366F15"/>
<path d="M132.895 0.752351C133.759 0.91954 134.4 1.21212 134.818 1.6301C135.264 2.04807 135.487 2.5357 135.487 3.093C135.487 4.01254 135.222 4.6813 134.692 5.09927C134.191 5.51724 133.383 5.68443 132.268 5.60084C129.76 5.40578 127.796 5.28039 126.375 5.22466C124.982 5.14107 123.142 5.08534 120.858 5.05747C119.827 10.1846 118.879 15.3396 118.015 20.5225C117.709 22.4173 117.388 24.6186 117.054 27.1264C116.72 29.6064 116.497 31.6127 116.385 33.1452C116.329 33.9533 115.995 34.5803 115.382 35.0261C114.769 35.4441 114.031 35.6531 113.167 35.6531C112.247 35.6531 111.537 35.4302 111.035 34.9843C110.534 34.5385 110.283 33.9533 110.283 33.2288C110.283 32.5601 110.38 31.4594 110.575 29.9269C110.798 28.3664 111.049 26.7363 111.328 25.0366C111.634 23.3368 111.871 21.86 112.038 20.6061C112.345 18.4883 112.693 16.3845 113.083 14.2947C113.473 12.2048 113.863 10.2264 114.254 8.35946C114.337 7.94148 114.435 7.46778 114.546 6.93835C114.658 6.38105 114.783 5.76803 114.922 5.09927C112.192 5.18286 110.046 5.40578 108.486 5.76803C106.925 6.13027 105.81 6.64577 105.142 7.31452C104.501 7.95542 104.18 8.79136 104.18 9.82236C104.18 10.7698 104.459 11.6754 105.016 12.5392C105.128 12.7342 105.184 12.9432 105.184 13.1661C105.184 13.6956 104.863 14.1971 104.222 14.6708C103.609 15.1167 102.968 15.3396 102.3 15.3396C101.826 15.3396 101.436 15.2003 101.129 14.9216C100.572 14.4479 100.112 13.7792 99.7499 12.9154C99.3876 12.0237 99.2065 11.0206 99.2065 9.90596C99.2065 7.53745 99.9728 5.64263 101.505 4.22153C103.066 2.77255 105.42 1.71369 108.569 1.04493C111.746 0.376175 115.814 0.0417964 120.774 0.0417964C123.839 0.0417964 126.277 0.0975261 128.088 0.208986C129.928 0.320445 131.53 0.501568 132.895 0.752351Z" fill="#366F15"/>
<path fill-rule="evenodd" clip-rule="evenodd" d="M142.77 35.6531C140.29 35.6531 138.047 35.0958 136.041 33.9812C134.063 32.8666 132.488 31.2365 131.318 29.0909C130.148 26.9175 129.562 24.326 129.562 21.3166C129.562 17.0812 130.329 13.3473 131.861 10.1149C133.422 6.88262 135.526 4.38871 138.173 2.63323C140.848 0.877743 143.801 0 147.034 0C149.514 0 151.743 0.557297 153.721 1.67189C155.728 2.78649 157.316 4.43051 158.486 6.60397C159.656 8.74957 160.242 11.3271 160.242 14.3365C160.242 18.5719 159.461 22.3058 157.901 25.5381C156.368 28.7705 154.265 31.2644 151.59 33.0199C148.942 34.7753 146.003 35.6531 142.77 35.6531ZM145.253 7.98939C144.885 6.97919 144.225 6.3237 143.44 6.1909C142.656 6.0581 141.816 6.45956 141.136 7.29228C140.512 8.05729 140.058 9.12406 139.86 10.2961C139.661 11.4682 139.738 12.6247 140.076 13.5527C140.444 14.5629 141.105 15.2184 141.889 15.3512C142.674 15.484 143.513 15.0826 144.193 14.2498C144.818 13.4848 145.271 12.4181 145.47 11.246C145.668 10.0739 145.591 8.91735 145.253 7.98939ZM137.76 12.4207C138.404 12.938 138.846 13.856 138.974 14.9392C139.078 15.8245 138.958 16.7212 138.636 17.4642C138.279 18.2854 137.721 18.8315 137.064 19.0018C136.836 19.0607 136.605 19.07 136.379 19.0316C136.078 18.9808 135.786 18.8461 135.519 18.6321C134.875 18.1148 134.433 17.1968 134.305 16.1135C134.201 15.2284 134.321 14.3317 134.644 13.5887C135 12.7674 135.558 12.2213 136.215 12.051C136.744 11.9141 137.293 12.0453 137.76 12.4207ZM151.624 9.06802C151.256 8.05782 150.595 7.40238 149.81 7.26958C149.026 7.13679 148.186 7.53825 147.506 8.37092C146.882 9.13593 146.428 10.2027 146.23 11.3747C146.031 12.5468 146.108 13.7033 146.446 14.6313C146.814 15.6415 147.475 16.297 148.26 16.4298C149.044 16.5626 149.884 16.1611 150.564 15.3284C151.188 14.5634 151.642 13.4967 151.84 12.3246C152.039 11.1526 151.962 9.99599 151.624 9.06802ZM154.704 15.1814C155.268 15.5585 155.615 16.2579 155.682 17.1507C155.741 17.9585 155.56 18.8448 155.17 19.6463C154.693 20.6272 153.973 21.3483 153.195 21.6248C152.873 21.7392 152.552 21.77 152.251 21.7192C152.025 21.6808 151.81 21.5959 151.614 21.4654C151.05 21.0883 150.702 20.3889 150.636 19.4961C150.577 18.6883 150.758 17.8021 151.148 17.0005C151.625 16.0196 152.345 15.2985 153.123 15.022C153.688 14.8213 154.249 14.8779 154.704 15.1814ZM149.581 20.2425C148.498 17.9376 146.88 16.4953 145.025 16.1812C143.17 15.8671 141.168 16.6965 139.386 18.5165C137.785 20.1523 136.621 22.3586 136.273 24.4181C136.103 25.4186 136.231 26.2241 136.651 26.8123C137.066 27.3929 137.697 27.6722 138.432 27.7967C139.214 27.9291 140.115 27.8862 141 27.8439C141.774 27.807 142.504 27.7722 143.047 27.8641C143.516 27.9434 144.152 28.2016 144.825 28.4749C146.398 29.1136 148.181 29.8375 149.431 28.9573C150.026 28.5389 150.412 27.8266 150.579 26.8404C150.927 24.7808 150.554 22.3143 149.581 20.2425Z" fill="#366F15"/>
<path d="M195.41 10.5329C195.41 12.9014 194.797 15.0749 193.571 17.0533C192.345 19.0317 190.562 20.6479 188.221 21.9018C185.88 23.1557 183.094 23.8941 179.862 24.117L178.064 34.1902C177.368 38.0634 175.473 40 172.38 40C170.68 40 169.106 39.4984 167.657 38.4953C166.236 37.4922 165.093 35.9596 164.229 33.8976C163.366 31.8356 162.934 29.2999 162.934 26.2905C162.934 20.6339 163.839 15.8412 165.65 11.9122C167.49 7.95542 169.942 5.00174 173.007 3.0512C176.1 1.0728 179.499 0.083596 183.205 0.083596C185.825 0.083596 188.04 0.543366 189.851 1.46291C191.69 2.38245 193.07 3.63636 193.989 5.22466C194.936 6.78509 195.41 8.55451 195.41 10.5329ZM180.614 19.8119C186.326 19.0874 189.182 16.1198 189.182 10.9091C189.182 9.07001 188.569 7.57924 187.343 6.43678C186.145 5.26646 184.278 4.6813 181.742 4.6813C178.872 4.6813 176.365 5.5869 174.219 7.39812C172.101 9.20934 170.457 11.7311 169.287 14.9634C168.144 18.1679 167.573 21.8321 167.573 25.9561C167.573 27.6837 167.74 29.2163 168.075 30.5538C168.437 31.8913 168.883 32.9363 169.412 33.6886C169.97 34.4131 170.499 34.7753 171.001 34.7753C171.697 34.7753 172.227 33.814 172.589 31.8913L173.968 23.9916C172.881 23.8245 172.408 23.7548 172.547 23.7827C171.711 23.6433 171.168 23.3925 170.917 23.0303C170.666 22.6402 170.541 22.1526 170.541 21.5674C170.541 20.9544 170.708 20.4667 171.042 20.1045C171.405 19.7423 171.892 19.5611 172.505 19.5611C172.784 19.5611 172.993 19.5751 173.132 19.6029C173.801 19.7144 174.316 19.784 174.679 19.8119C175.041 17.6385 175.556 14.7266 176.225 11.0763C176.392 10.1289 176.769 9.46012 177.354 9.07001C177.967 8.65204 178.677 8.44305 179.485 8.44305C180.405 8.44305 181.06 8.62417 181.45 8.98642C181.868 9.32079 182.077 9.86416 182.077 10.6165C182.077 11.0623 182.049 11.4246 181.993 11.7032L180.614 19.8119Z" fill="#366F15"/>
<path d="M215.293 0.250783C216.017 0.250783 216.63 0.431904 217.132 0.794148C217.633 1.12853 217.884 1.5465 217.884 2.04807C217.884 2.93974 217.605 3.66423 217.048 4.22153C216.491 4.75096 215.697 5.01567 214.666 5.01567C213.049 5.01567 211.823 5.02961 210.987 5.05747C210.932 5.39185 210.681 6.89655 210.235 9.57158C209.734 12.5531 209.427 14.3783 209.316 15.047L208.438 20.5225C207.825 24.6186 207.337 28.046 206.975 30.8046C207.56 30.7767 208.354 30.7628 209.357 30.7628C210.834 30.7628 211.837 30.9579 212.367 31.348C212.896 31.7381 213.161 32.3232 213.161 33.1035C213.161 33.8279 212.868 34.441 212.283 34.9425C211.726 35.4441 210.932 35.6949 209.901 35.6949C209.204 35.6949 208.103 35.667 206.599 35.6113C205.206 35.5556 204.286 35.5277 203.84 35.5277C202.085 35.5277 200.162 35.681 198.072 35.9875C197.153 36.1268 196.498 36.1964 196.108 36.1964C195.495 36.1964 194.979 36.0293 194.561 35.6949C194.143 35.3605 193.934 34.8729 193.934 34.232C193.934 33.2288 194.38 32.4486 195.272 31.8913C196.163 31.334 197.417 31.0415 199.033 31.0136L200.998 30.9718L201.123 30.0522C201.792 25.5939 202.28 22.4451 202.586 20.6061L203.506 15.1306C204.063 11.8983 204.565 8.56844 205.01 5.14107L201.499 5.18286C200.496 5.18286 199.8 5.02961 199.41 4.72309C199.047 4.38872 198.866 3.92895 198.866 3.34378C198.866 1.44897 200.232 0.431906 202.962 0.292582C204.244 0.236851 205.805 0.208986 207.644 0.208986L215.293 0.250783Z" fill="#366F15"/>
<path d="M227.878 35.6531C225.956 35.6531 224.214 35.1794 222.654 34.232C221.121 33.2846 219.909 31.9192 219.017 30.1358C218.126 28.3246 217.68 26.193 217.68 23.7409C217.68 19.5054 218.586 15.5904 220.397 11.9958C222.208 8.37339 224.883 5.47544 228.422 3.30199C231.961 1.10066 236.21 0 241.17 0C242.452 0 243.817 0.0975269 245.266 0.292582C246.743 0.487635 248.081 0.780216 249.279 1.17032C250.059 1.39324 250.449 1.95054 250.449 2.84222C250.449 3.5667 250.17 4.24939 249.613 4.89028C249.084 5.53118 248.457 5.85162 247.732 5.85162C247.509 5.85162 247.342 5.83769 247.231 5.80982C245.782 5.47544 244.542 5.23859 243.511 5.09927C242.48 4.93208 241.393 4.84848 240.25 4.84848C236.712 4.84848 233.702 5.7123 231.222 7.43992C228.742 9.13967 226.889 11.3967 225.663 14.2111C224.437 17.0254 223.824 20.0627 223.824 23.3229C223.824 25.6914 224.284 27.5305 225.203 28.8401C226.151 30.1219 227.377 30.7628 228.882 30.7628C230.581 30.7628 232.072 30.0662 233.354 28.6729C234.636 27.2797 235.806 25.0226 236.865 21.9018C237.924 18.7809 238.969 14.5455 240 9.1954C240.167 8.41519 240.501 7.88576 241.003 7.60711C241.504 7.32846 242.173 7.18913 243.009 7.18913C244.988 7.18913 245.977 7.83002 245.977 9.11181C245.977 9.33473 245.935 9.61338 245.851 9.94775C245.127 12.6506 244.458 15.6461 243.845 18.9342C243.26 22.1944 242.967 24.6743 242.967 26.3741C242.967 27.8788 243.19 28.9795 243.636 29.6761C244.082 30.3448 244.765 30.6792 245.684 30.6792C246.576 30.6792 247.426 30.3866 248.234 29.8015C249.042 29.1884 250.059 28.1574 251.285 26.7085C251.619 26.3184 251.996 26.1233 252.413 26.1233C252.776 26.1233 253.054 26.2905 253.249 26.6249C253.472 26.9593 253.584 27.419 253.584 28.0042C253.584 29.0909 253.319 29.9547 252.79 30.5956C251.424 32.2396 250.087 33.4936 248.777 34.3574C247.467 35.2212 245.865 35.6531 243.97 35.6531C242.02 35.6531 240.446 35.0958 239.247 33.9812C238.049 32.8387 237.297 31.2365 236.99 29.1745C234.928 33.4936 231.891 35.6531 227.878 35.6531Z" fill="#366F15"/>
</svg>
